<svg xmlns="http://www.w3.org/2000/svg" width="1730" height="500" viewBox="0 0 1730 500" fill="none"><path d="M770.81 499.09C749.803 499.09 739.297 488.37 739.29 466.93V376.63C739.29 374.263 740.457 373.08 742.79 373.08H766C768.07 373.08 770.25 373.87 770.25 376.41V458C770.25 462.13 771.13 465.13 772.91 467C774.69 468.87 777.57 469.77 781.55 469.77H826.85C830.85 469.77 833.75 468.84 835.57 467C837.39 465.16 838.32 462.17 838.32 458V376.41C838.32 373.86 840.49 373.08 842.56 373.08H865.73C868.06 373.08 869.23 374.27 869.23 376.63V466.93C869.23 488.363 858.723 499.083 837.71 499.09H770.81Z" fill="white"></path><path d="M1184.07 498.55C1181.74 498.55 1180.56 497.37 1180.56 495V375.6C1180.56 373.233 1181.73 372.05 1184.07 372.05H1207.23C1209.57 372.05 1210.73 373.24 1210.73 375.6V470.6H1293.89C1296.22 470.6 1297.39 471.8 1297.39 474.16V495C1297.39 497.36 1296.21 498.55 1293.89 498.55H1184.07Z" fill="white"></path><path fill-rule="evenodd" clip-rule="evenodd" d="M1397.48 472.33C1401.07 472.33 1403.67 471.383 1405.28 469.49C1406.92 467.6 1407.74 464.58 1407.74 460.49V412.13C1407.74 407.997 1406.92 404.997 1405.28 403.13C1403.64 401.263 1401.04 400.343 1397.48 400.37H1348.82C1345.23 400.37 1342.61 401.37 1340.94 403.13C1339.27 404.89 1338.41 407.95 1338.41 412.13V460.46C1338.41 464.58 1339.25 467.6 1340.94 469.46C1342.63 471.32 1345.23 472.27 1348.82 472.3H1397.48V472.33ZM1338.21 499.09C1318.52 499.09 1308.67 488.37 1308.67 466.93V405.64C1308.67 384.307 1318.52 373.64 1338.21 373.64H1408C1427.69 373.64 1437.54 384.307 1437.53 405.64V466.93C1437.53 488.37 1427.69 499.09 1408 499.09H1338.26H1338.21Z" fill="white"></path><path fill-rule="evenodd" clip-rule="evenodd" d="M468 402.54L537.74 402.36H538.91L539.17 412.73H566.71C567.97 402.82 567.6 392.56 564.77 385.57C562.3 379.46 557.92 375.06 551.05 373.44C545.66 372.18 509.05 372.52 484.58 372.75C476.76 372.82 470.18 372.88 466.27 372.88H463.15C454.58 372.81 451.06 372.78 444.89 377.94C441.659 380.792 439.392 384.576 438.4 388.77C437.202 393.708 436.634 398.779 436.71 403.86C436.66 408.17 436.61 413.4 436.71 418.61C436.81 423.82 437.02 428.94 437.53 433.18C438.36 439.98 440.53 444.18 443.89 446.61C447.25 449.04 451.89 449.89 457.4 449.93L537.51 450.46H538.69V469.57H537.49L467.21 469.51H466V468.31V458.41L437.7 458.49C436.986 463.83 436.929 469.236 437.53 474.59C438.11 480.09 439.28 487.34 441 490.28C443.85 494.46 446.83 496.85 450.56 498.17C454.29 499.49 459.09 499.83 465.23 499.83H477.28C496.89 499.83 516.5 499.83 536.1 499.83C551.29 499.88 559.04 497.32 562.92 491.46C566.8 485.6 567.04 475.93 567.02 462.18V454.46C567.2 430.46 566.51 421.92 538.54 421.83L468.05 421.88H466.88V420.66L466.83 402.58L468 402.54Z" fill="white"></path><path fill-rule="evenodd" clip-rule="evenodd" d="M919.09 420.66V402H983.2V420.62L919.09 420.66ZM889.98 498.66V372.66H993.28C993.28 372.66 1012.46 374.76 1013.02 394.21V432.15C1013.02 432.15 1008.02 452.15 985.16 449.92L1010.92 498.35H978.3L952.3 450.48H919.68V498.63L889.98 498.66Z" fill="white"></path><path fill-rule="evenodd" clip-rule="evenodd" d="M1159.2 498.91H1033.22V372.93H1159.48V402.04H1062.34V421.92L1159.38 422.02V450.02L1062.61 449.91V469.23H1159.34L1159.2 498.91Z" fill="white"></path><path fill-rule="evenodd" clip-rule="evenodd" d="M1637.25 421V400.8H1703.39V421.1L1637.25 421ZM1606.67 499.25V372H1711.16C1711.16 372 1729.78 376.2 1729.78 393.7V434C1729.78 434 1725.44 450.52 1708.08 450.38H1636.7V498.81L1606.67 499.25Z" fill="white"></path><path fill-rule="evenodd" clip-rule="evenodd" d="M1545.85 472.33C1549.44 472.33 1552.05 471.33 1553.66 469.49C1555.27 467.65 1556.12 464.58 1556.12 460.49V412.13C1556.12 407.997 1555.3 404.997 1553.66 403.13C1552.05 401.32 1549.44 400.4 1545.85 400.37H1497.2C1493.61 400.37 1490.98 401.29 1489.32 403.13C1487.66 404.97 1486.81 407.97 1486.78 412.13V460.46C1486.78 464.58 1487.63 467.6 1489.32 469.46C1491.01 471.32 1493.61 472.27 1497.2 472.3H1545.85V472.33ZM1486.58 499.09C1466.89 499.09 1457.05 488.37 1457.05 466.93V405.64C1457.05 384.307 1466.89 373.64 1486.58 373.64H1556.32C1576.01 373.64 1585.86 384.307 1585.86 405.64V466.93C1585.86 488.37 1576.01 499.09 1556.32 499.09H1486.58Z" fill="white"></path><path fill-rule="evenodd" clip-rule="evenodd" d="M414.15 498.91H288.17V372.93H414.43V402.04H317.29V421.92H414.71V449.91H317.57V469.23H414.29L414.15 498.91Z" fill="white"></path><path fill-rule="evenodd" clip-rule="evenodd" d="M172.93 420.66V402H237V420.62L172.93 420.66ZM143.82 498.66V372.66H247.12C247.12 372.66 266.3 374.76 266.85 394.21V432.15C266.85 432.15 261.85 452.15 239 449.92L264.75 498.35H232.14L206.14 450.48H173.49V498.63L143.82 498.66Z" fill="white"></path><path fill-rule="evenodd" clip-rule="evenodd" d="M30.44 421V400.8H95.81V421.1L30.44 421ZM0.219971 499.2V372H103.49C103.49 372 121.89 376.2 121.89 393.7V434C121.89 434 117.6 450.52 100.44 450.38H29.89V499L0.219971 499.2Z" fill="white"></path><path fill-rule="evenodd" clip-rule="evenodd" d="M619.9 402.54L689.64 402.36H690.81L691.07 412.73H718.61C719.87 402.82 719.5 392.56 716.67 385.57C714.2 379.46 709.82 375.06 702.95 373.44C697.57 372.18 660.95 372.52 636.48 372.75C628.66 372.82 622.09 372.88 618.17 372.88H615.04C606.48 372.81 602.96 372.78 596.79 377.94C593.559 380.792 591.292 384.576 590.3 388.77C589.106 393.709 588.539 398.779 588.61 403.86C588.56 408.17 588.51 413.4 588.61 418.61C588.64 423.478 588.917 428.34 589.44 433.18C590.26 439.98 592.44 444.18 595.79 446.61C599.14 449.04 603.79 449.89 609.3 449.93L689.41 450.46H690.6V469.57H689.4L619.12 469.51H617.92V468.31V458.41L589.62 458.49C588.906 463.83 588.849 469.236 589.45 474.59C590.03 480.09 591.2 487.34 592.92 490.28C595.77 494.46 598.75 496.85 602.48 498.17C606.21 499.49 611.01 499.83 617.15 499.83H629.15C648.76 499.83 668.37 499.83 687.97 499.83C703.16 499.88 710.92 497.32 714.79 491.46C718.66 485.6 718.91 475.93 718.89 462.18V454.46C719.07 430.46 718.39 421.92 690.41 421.83L619.92 421.88H618.75V420.66V402.58L619.9 402.54Z" fill="white"></path><path fill-rule="evenodd" clip-rule="evenodd" d="M699.34 215.65C698.66 181.88 699.1 148.01 699.1 114.23H756.19V114.33H860.85C869.48 114.33 877.58 114.97 884.76 113.64C890.23 112.64 895.13 110.64 899.59 105.29C903.47 100.62 906.59 94.22 905.64 86.15C905.13 81.2568 903.142 76.6349 899.94 72.9C889.35 60.64 870.16 63.26 855.58 63.13H699.35V0.649994H859.77C884.87 0.649994 907.9 -1.12001 930.08 15.65C962.15 39.94 962.76 81.71 962.82 84.06C965.08 128.3 944.59 152.32 925.48 165.06C916.252 171.258 905.787 175.376 894.81 177.13C880.71 179.48 866.32 178.48 850.48 178.48H756.48V211.12H974.12V0.210007H1030.97V267.93C920.443 267.87 809.91 267.87 699.37 267.93L699.34 215.65Z" fill="white"></path></svg>